<svg xmlns="http://www.w3.org/2000/svg" width="32" height="32" class="ng-scope" viewBox="0 0 512 512"><g data-name="filled outline"><path fill="#f3af3e" d="m224 176-48 48q-2.145-1.065-4.16-2.31A57.872 57.872 0 0 1 144.12 176q-.12-1.875-.12-3.78V152h48z"/><path fill="#5b3726" d="m208 200-20 12-16.16 9.69A57.872 57.872 0 0 1 144.12 176h40.61l19.33 19.94z"/><path fill="#f3af3e" d="M368 152v20.22q0 1.905-.12 3.78A57.929 57.929 0 0 1 336 224l-48-48 32-24z"/><path fill="#5b3726" d="M367.88 176a57.883 57.883 0 0 1-24.58 43.65L320 208l-16-8 3.94-4.06L327.27 176z"/><path fill="#f3af3e" d="M344 240v104H168V240a88 88 0 0 1 176 0z"/><path fill="#b9b9b9" d="m360 32-8 32 88 56v216h32V104L368 34.667z"/><path fill="#6fbbc6" d="M472 360v48a80 80 0 0 1-80 80H120a80 80 0 0 1-80-80v-48z"/><rect width="464" height="32" x="24" y="328" fill="#8aced8" rx="16"/><path fill="#cbcbcb" d="M346.788 89.862 311 36.8l22.435-10.24a28.331 28.331 0 0 1 35.253 9.932 28.332 28.332 0 0 1-4 36.406z"/><path fill="#da922a" d="M224 288v16a40.056 40.056 0 0 1-37.61-26.39A40.128 40.128 0 0 1 168 263.96V240h8a23.937 23.937 0 0 0 8 17.87V248h16v16a24.032 24.032 0 0 0 24 24zM344 240v23.96a40.128 40.128 0 0 1-18.39 13.65A40.056 40.056 0 0 1 288 304v-16a24.032 24.032 0 0 0 24-24v-16h16v9.87a23.937 23.937 0 0 0 8-17.87z"/><path fill="#d18d28" d="m213.487 208.534 24.008-7.994 5.056 15.185-24.008 7.994zM269.47 215.458l5.056-15.185 24.008 7.994-5.056 15.185z"/><path fill="#744630" d="m291.578 287.155-7.156-14.31A27.932 27.932 0 0 1 264 274.592V256h-16v18.6a27.951 27.951 0 0 1-20.422-1.75l-7.156 14.31A43.9 43.9 0 0 0 256 288.726a43.9 43.9 0 0 0 35.578-1.571z"/><path fill="#d18d28" d="M192 320a15.915 15.915 0 0 1-2.14 8H168v-32a24 24 0 0 1 24 24zM344 296v32h-21.86a15.915 15.915 0 0 1-2.14-8 24 24 0 0 1 24-24z"/><g fill="#c0f5f9"><path d="M232 136h-16a78.415 78.415 0 0 1 4.676-26.718l15.049 5.436A62.45 62.45 0 0 0 232 136zM243.009 100.529l-13.19-9.058a78.107 78.107 0 0 1 24.365-22.911l5.7-3.42 8.232 13.72-5.7 3.42a62.212 62.212 0 0 0-19.407 18.249zM272 136h-16a78.415 78.415 0 0 1 4.676-26.718l15.049 5.436A62.45 62.45 0 0 0 272 136zM283.009 100.529l-13.19-9.058a78.107 78.107 0 0 1 24.365-22.911l5.7-3.42 8.232 13.72-5.7 3.42a62.212 62.212 0 0 0-19.407 18.249zM312 136h-16a78.415 78.415 0 0 1 4.676-26.718l15.049 5.436A62.45 62.45 0 0 0 312 136z"/></g><circle cx="80" cy="264" r="32" fill="#b3e4e8"/><circle cx="48" cy="184" r="24" fill="#c0f5f9"/><circle cx="392" cy="256" r="16" fill="#c0f5f9"/><path fill="#8aced8" d="M96 392a8 8 0 0 1-8 8H40v-16h48a8 8 0 0 1 8 8zM128 400h-8a8 8 0 0 1 0-16h8a8 8 0 0 1 0 16z"/><path fill="#744630" d="M256 416a8 8 0 0 0 8-8v-8a8 8 0 0 0-16 0v8a8 8 0 0 0 8 8zM240 424v-8a8 8 0 0 0-16 0v8a8 8 0 0 0 16 0zM280 408a8 8 0 0 0-8 8v8a8 8 0 0 0 16 0v-8a8 8 0 0 0-8-8zM272 440h-8v-8a8 8 0 0 0-16 0v8h-8a8 8 0 0 0 0 16h32a8 8 0 0 0 0-16z"/><path fill="#8aced8" d="M384 464a8 8 0 0 1 0-16 48.053 48.053 0 0 0 48-48 8 8 0 0 1 16 0 64.072 64.072 0 0 1-64 64zM352 464h-8a8 8 0 0 1 0-16h8a8 8 0 0 1 0 16z"/><path fill="#f3af3e" d="M168 336h-16a16 16 0 0 1-16-16 24 24 0 0 1 24-24 24 24 0 0 1 24 24 16 16 0 0 1-16 16zM360 336h-16a16 16 0 0 1-16-16 24 24 0 0 1 24-24 24 24 0 0 1 24 24 16 16 0 0 1-16 16z"/><path fill="#5b3726" d="M256 264a16 16 0 0 1-16-16v-16h32v16a16 16 0 0 1-16 16z"/><path fill="#69b0bb" d="M40 360h432v16H40z"/><path fill="#b9b9b9" d="M279.972 48.096 306.5 30.208l44.72 66.32-26.528 17.888z"/><path d="M480 321.376V104a8 8 0 0 0-3.562-6.656L371.817 27.6a36.2 36.2 0 0 0-41.7-8.321l-16.27 7.426-.684-1.014a8 8 0 0 0-11.105-2.16l-26.531 17.897a8 8 0 0 0-2.16 11.105L287.3 73.2a78.15 78.15 0 0 0-17.486 18.272L283 100.531A62.278 62.278 0 0 1 296.271 86.5l18.9 28.022-14.493-5.235A78.415 78.415 0 0 0 296 136h16a62.447 62.447 0 0 1 3.585-20.867l2.513 3.726a8 8 0 0 0 11.1 2.161l26.53-17.892a8 8 0 0 0 2.161-11.106l-.685-1.014 8.968-8.5L432 124.392V320h-48a32.036 32.036 0 0 0-32-32v-48a96.878 96.878 0 0 0-1.311-15.882 66.247 66.247 0 0 0 25.174-47.606c.091-1.414.137-2.858.137-4.292V152a8 8 0 0 0-8-8h-48a8.009 8.009 0 0 0-4.8 1.6l-13.379 10.03a96.091 96.091 0 0 0-91.644 0L196.8 145.6a8.009 8.009 0 0 0-4.8-1.6h-48a8 8 0 0 0-8 8v20.22c0 1.434.046 2.878.137 4.3a66.243 66.243 0 0 0 25.174 47.6A96.86 96.86 0 0 0 160 240v48a32.036 32.036 0 0 0-32 32H40a24 24 0 0 0-8 46.624V408a88.1 88.1 0 0 0 88 88h272a88.1 88.1 0 0 0 88-88v-41.362a24.005 24.005 0 0 0 0-45.262zM326.89 103.281 291.105 50.22l13.266-8.947 35.784 53.062zm32.3-36.188L348.141 77.56l-25.224-37.4 13.844-6.318a20.331 20.331 0 0 1 22.426 33.254zm17.603 3.207a36.168 36.168 0 0 0 4.759-16.979L464 108.281V320h-16V120a8 8 0 0 0-3.7-6.75zM352 304a16.019 16.019 0 0 1 16 16 8.009 8.009 0 0 1-8 8h-16a8.009 8.009 0 0 1-8-8 16.019 16.019 0 0 1 16-16zm-96-15.274a43.8 43.8 0 0 0 32 0V304a40.069 40.069 0 0 0 37.612-26.388A39.957 39.957 0 0 0 336 271.978v20.327A32.012 32.012 0 0 0 320 320H192a32.012 32.012 0 0 0-16-27.695v-20.327a39.957 39.957 0 0 0 10.388 5.634A40.069 40.069 0 0 0 224 304v-15.274a43.8 43.8 0 0 0 32 0zM248 248v-8h16v8a8 8 0 0 1-16 0zm98.074-41.238A96.25 96.25 0 0 0 333.973 184h24.607a50.32 50.32 0 0 1-12.506 22.762zM152 160h37.334l15.487 11.611a8 8 0 0 0 9.028.39 80.024 80.024 0 0 1 84.3 0 8 8 0 0 0 9.028-.39L322.666 160H360v8h-32.73a8 8 0 0 0-5.745 2.432l-5.438 5.61a8 8 0 0 0-.238 10.881A79.613 79.613 0 0 1 336 240a23.943 23.943 0 0 1-8 17.869V248h-16v16a24.028 24.028 0 0 1-22.062 23.915c.55-.247 1.1-.49 1.64-.76l-7.156-14.31A27.932 27.932 0 0 1 264 274.592v-3.968A24.039 24.039 0 0 0 280 248v-16a8 8 0 0 0-8-8h-32a8 8 0 0 0-8 8v16a24.039 24.039 0 0 0 16 22.624v3.976a27.951 27.951 0 0 1-20.422-1.75l-7.156 14.31c.54.27 1.09.513 1.64.76A24.028 24.028 0 0 1 200 264v-16h-16v9.869A23.943 23.943 0 0 1 176 240a79.619 79.619 0 0 1 20.151-53.077 8 8 0 0 0-.238-10.881l-5.438-5.61A8 8 0 0 0 184.73 168H152zm1.419 24h24.608a96.264 96.264 0 0 0-12.1 22.762A50.311 50.311 0 0 1 153.419 184zM160 304a16.019 16.019 0 0 1 16 16 8.009 8.009 0 0 1-8 8h-16a8.009 8.009 0 0 1-8-8 16.019 16.019 0 0 1 16-16zm304 104a72.081 72.081 0 0 1-72 72H120a72.081 72.081 0 0 1-72-72v-8h40a8 8 0 0 0 0-16H48v-16h416zm13.674-58.347A7.991 7.991 0 0 1 472 352H40a8 8 0 1 1 0-16h94.131A23.943 23.943 0 0 0 152 344h16a23.943 23.943 0 0 0 17.869-8h140.262A23.943 23.943 0 0 0 344 344h16a23.943 23.943 0 0 0 17.869-8H472a8.009 8.009 0 0 1 5.674 13.653z"/><path d="m213.487 208.534 24.008-7.994 5.056 15.185-24.008 7.994zM269.47 215.458l5.056-15.185 24.008 7.994-5.056 15.185zM216 136h16a62.45 62.45 0 0 1 3.725-21.282l-15.049-5.436A78.415 78.415 0 0 0 216 136zM254.184 68.56a78.107 78.107 0 0 0-24.365 22.911l13.19 9.058a62.212 62.212 0 0 1 19.407-18.249l5.7-3.42-8.232-13.72zM256 136h16a62.45 62.45 0 0 1 3.725-21.282l-15.049-5.436A78.415 78.415 0 0 0 256 136zM40 264a40 40 0 1 0 40-40 40.045 40.045 0 0 0-40 40zm40-24a24 24 0 1 1-24 24 24.028 24.028 0 0 1 24-24zM48 152a32 32 0 1 0 32 32 32.036 32.036 0 0 0-32-32zm0 48a16 16 0 1 1 16-16 16.019 16.019 0 0 1-16 16zM368 256a24 24 0 1 0 24-24 24.028 24.028 0 0 0-24 24zm24-8a8 8 0 1 1-8 8 8.009 8.009 0 0 1 8-8zM120 400h8a8 8 0 0 0 0-16h-8a8 8 0 0 0 0 16zM256 416a8 8 0 0 0 8-8v-8a8 8 0 0 0-16 0v8a8 8 0 0 0 8 8zM232 432a8 8 0 0 0 8-8v-8a8 8 0 0 0-16 0v8a8 8 0 0 0 8 8zM280 432a8 8 0 0 0 8-8v-8a8 8 0 0 0-16 0v8a8 8 0 0 0 8 8zM232 448a8 8 0 0 0 8 8h32a8 8 0 0 0 0-16h-8v-8a8 8 0 0 0-16 0v8h-8a8 8 0 0 0-8 8zM384 464a64.072 64.072 0 0 0 64-64 8 8 0 0 0-16 0 48.053 48.053 0 0 1-48 48 8 8 0 0 0 0 16zM344 464h8a8 8 0 0 0 0-16h-8a8 8 0 0 0 0 16z"/></g></svg>