<svg xmlns="http://www.w3.org/2000/svg" width="32" height="32" class="ng-scope" viewBox="0 0 256 256"><circle cx="23.882" cy="30.322" r="19.365" fill="#5fcdff"/><path fill="#73d7f9" d="M31.38 48.183c-2.31.96-4.84 1.5-7.5 1.5-10.69 0-19.36-8.67-19.36-19.36 0-10.7 8.67-19.37 19.36-19.37 2.66 0 5.19.54 7.5 1.5-6.96 2.94-11.86 9.83-11.86 17.87 0 8.03 4.9 14.92 11.86 17.86z"/><path fill="#ffe2e2" d="M162.926 238.728H90.173c-27.614 0-50-22.386-50-50v-32.87h172.752v32.87c.001 27.614-22.385 50-49.999 50z"/><circle cx="20.211" cy="81.616" r="13.895" fill="#5fcdff"/><circle cx="221.983" cy="24.1" r="13.895" fill="#5fcdff"/><circle cx="229.413" cy="121.237" r="13.895" fill="#5fcdff"/><circle cx="235.881" cy="68.584" r="13.895" fill="#5fcdff"/><circle cx="24.454" cy="125.019" r="13.895" fill="#5fcdff"/><path fill="#ffbb98" d="M57.024 31.574c-3.334-.881-6.38 2.166-5.499 5.499 8.462 31.88 6.951 21.865 15.237 53.065l36.519-46.513c-23.244-6.165-14.728-3.682-46.257-12.051zM195.513 31.575c-31.531 8.366-23.057 5.868-46.295 12.032h-.009l36.563 46.456c8.285-31.199 6.775-21.108 15.24-52.989.881-3.334-2.165-6.38-5.499-5.499z"/><path fill="#73d7f9" d="M27.719 93.313c-2.16 1.4-4.74 2.2-7.51 2.2-7.67 0-13.89-6.22-13.89-13.9 0-7.67 6.22-13.89 13.89-13.89 2.77 0 5.35.81 7.51 2.2-3.85 2.46-6.4 6.78-6.4 11.69a13.862 13.862 0 0 0 6.4 11.7zM31.959 136.713c-2.16 1.4-4.74 2.2-7.51 2.2-7.67 0-13.89-6.22-13.89-13.89 0-7.68 6.22-13.9 13.89-13.9 2.77 0 5.35.81 7.51 2.2-3.85 2.46-6.4 6.78-6.4 11.7a13.857 13.857 0 0 0 6.4 11.69zM236.92 132.933c-2.16 1.4-4.74 2.2-7.51 2.2-7.67 0-13.89-6.22-13.89-13.9 0-7.67 6.22-13.89 13.89-13.89 2.77 0 5.35.81 7.51 2.2-3.85 2.46-6.4 6.78-6.4 11.69 0 4.92 2.55 9.24 6.4 11.7zM243.37 80.283c-3.19 2.05-7.2 2.79-11.15 1.71-7.4-2.03-11.76-9.66-9.74-17.07 2.02-7.4 9.66-11.76 17.06-9.74 1.4.38 2.68.96 3.84 1.71a13.839 13.839 0 0 0-5.9 8.03c-1.64 6.01.92 12.16 5.89 15.36zM229.479 35.803a13.875 13.875 0 0 1-11.16 1.7c-7.4-2.02-11.76-9.66-9.74-17.06s9.66-11.77 17.06-9.75c1.4.38 2.69.97 3.85 1.71-2.8 1.79-4.96 4.58-5.91 8.04-1.639 6 .92 12.17 5.9 15.36z"/><path fill="#ffefee" d="M105.17 238.723h-15c-27.61 0-50-22.38-50-50v-32.87h15v32.87c0 27.62 22.39 50 50 50z"/><path fill="#ffcfcf" d="M212.93 155.853v32.87c0 27.62-22.39 50-50 50h-15c27.61 0 50-22.38 50-50v-32.87z"/><path fill="#ffe2e2" d="M230.217 160.294v8.151a4.437 4.437 0 0 1-4.437 4.436H27.319a4.436 4.436 0 0 1-4.437-4.436v-8.151a4.437 4.437 0 0 1 4.437-4.436H225.78a4.436 4.436 0 0 1 4.437 4.436z"/><path fill="#ffefee" d="M42.32 172.883h-15c-2.45 0-4.44-1.99-4.44-4.44v-8.15c0-2.45 1.99-4.44 4.44-4.44h15c-2.45 0-4.44 1.99-4.44 4.44v8.15c0 2.45 1.99 4.44 4.44 4.44z"/><path fill="#ffcfcf" d="M230.219 160.293v8.15c0 2.45-1.99 4.44-4.44 4.44h-15c2.45 0 4.44-1.99 4.44-4.44v-8.15c0-2.45-1.99-4.44-4.44-4.44h15c2.45 0 4.44 1.99 4.44 4.44z"/><path fill="#ffbb98" d="M62.349 172.882h-16c-5.523 0-10-4.477-10-10v-5.245c0-8.284 6.716-15 15-15h6c8.284 0 15 6.716 15 15v5.245c0 5.522-4.477 10-10 10zM186.921 98.925c0 3.856-.355 7.63-1.046 11.285-5.293 28.291-30.128 49.642-59.881 49.642-33.64 0-60.927-27.27-60.927-60.927 0-32.664 26.14-60.927 61.345-60.927 34.233.504 59.833 27.639 60.49 59.636.019.427.019.864.019 1.291z"/><path fill="#ffcaa6" d="M132.851 159.471a60.825 60.825 0 0 1-6.857.382c-33.637 0-60.927-27.272-60.927-60.927 0-32.664 26.144-60.927 61.345-60.927 2.173.036 4.31.173 6.411.409-31.491 3.556-54.116 30.136-54.116 60.518.001 31.364 23.699 57.181 54.144 60.545z"/><path fill="#ffaa80" d="M186.921 98.926c0 3.856-.355 7.63-1.046 11.285-5.292 28.29-30.127 49.642-59.881 49.642-2.292 0-4.547-.127-6.766-.382 26.644-3.001 48.123-23.18 53.006-49.26a60.729 60.729 0 0 0 1.046-11.285c0-.427 0-.864-.018-1.291a60.823 60.823 0 0 0-54.079-59.226 62.976 62.976 0 0 1 7.229-.409c34.237.5 59.836 27.635 60.49 59.636.019.426.019.863.019 1.29z"/><path fill="#c98585" d="M186.921 98.925c0 3.856-.355 7.63-1.046 11.285a45.56 45.56 0 0 1-2.746.073c-32.237 0-58.381-26.135-58.381-58.39 0-4.783.573-9.439 1.664-13.895 34.233.504 59.833 27.639 60.49 59.636.019.427.019.864.019 1.291z"/><path fill="#965959" d="M126.413 37.999c-.127.527-.246 1.055-.364 1.582 31.726 7.278 51.813 38.051 46.35 69.721 3.474.646 7.066.982 10.73.982.918 0 1.837-.018 2.746-.073 6.918-36.587-20.462-71.642-59.462-72.212z"/><path fill="#73d7f9" d="M178.19 30.833c0 11.43-9.27 20.7-20.71 20.7-3.32 0-6.44-.78-9.22-2.17-.37 1.25-.84 2.45-1.42 3.6-3.69 7.47-11.38 12.62-20.29 12.62-10.28 0-18.94-6.85-21.71-16.22-2.78 1.39-5.9 2.17-9.22 2.17-11.44 0-20.71-9.27-20.71-20.7 0-.91.06-1.81.18-2.69 1.32-10.16 10-18.01 20.53-18.01 5.09 0 9.74 1.84 13.35 4.89 3.65-5.88 10.15-9.81 17.58-9.81s13.93 3.93 17.58 9.81c3.61-3.05 8.26-4.89 13.35-4.89 11.44 0 20.71 9.27 20.71 20.7z"/><path fill="#5fcdff" d="M178.19 30.833c0 11.43-9.27 20.7-20.71 20.7-3.32 0-6.44-.78-9.22-2.17-.37 1.25-.84 2.45-1.42 3.6-16.71-.8-30.57-10.07-35.15-22.55-4.8 1.94-10.21 3.03-15.94 3.03-7.7 0-14.82-1.96-20.66-5.3 1.32-10.16 10-18.01 20.53-18.01 5.09 0 9.74 1.84 13.35 4.89 3.65-5.88 10.15-9.81 17.58-9.81s13.93 3.93 17.58 9.81c3.61-3.05 8.26-4.89 13.35-4.89 11.44 0 20.71 9.27 20.71 20.7z"/><path fill="#b76c6c" d="M129.774 113.777c-1.799 2.244-5.213 2.244-7.012 0l-4.056-5.061-1.709-2.132c-2.357-2.941-.263-7.303 3.506-7.303h11.53c3.769 0 5.863 4.362 3.506 7.303l-1.709 2.132z"/><path fill="#ffcaa6" d="M61.349 172.878h-15c-5.52 0-10-4.47-10-10v-5.24c0-8.29 6.72-15 15-15h6c1.57 0 3.08.24 4.5.68-6.08 1.92-10.5 7.6-10.5 14.32v5.24c0 5.53 4.48 10 10 10z"/><circle cx="204.253" cy="192.242" r="46.63" fill="#ff4a73"/><path fill="#ea2a6a" d="M250.879 192.238c0 25.76-20.87 46.63-46.63 46.63-2.55 0-5.06-.21-7.5-.61 22.19-3.58 39.13-22.81 39.13-46.02 0-23.2-16.94-42.43-39.13-46.01 2.44-.4 4.95-.61 7.5-.61 25.76 0 46.63 20.87 46.63 46.62z"/><path fill="#f973a3" d="M211.749 238.258c-2.44.4-4.95.61-7.5.61-25.75 0-46.63-20.87-46.63-46.63 0-25.75 20.88-46.62 46.63-46.62 2.55 0 5.06.21 7.5.61-22.18 3.58-39.13 22.81-39.13 46.01 0 23.21 16.95 42.44 39.13 46.02z"/><path fill="#a4a4a5" d="M223.709 212.878c-.046.092-.699 1.329-.76 1.39 0 .01 0 .01-.01.01-11.181 18.959-40.44 10.879-40.44-11.13 0-9.08 5.57-16.84 13.46-20.11-5.13-5.13-4.341-13.754 1.71-17.86v-.01c1.88-1.28 4.14-2.03 6.58-2.03 10.296 0 15.613 12.552 8.3 19.9 9.386 3.141 17.629 16.894 11.16 29.84z"/><path fill="#87828e" d="M223.709 212.878c-.046.092-.699 1.329-.76 1.39 0 .01 0 .01-.01.01-2.555 4.331-6.565 7.576-11.19 9.29-18.537-6.818-19.117-32.934-.79-40.53-4.813-4.813-4.462-12.792.8-17.17 5.226 4.386 5.597 12.34.79 17.17 9.386 3.141 17.629 16.894 11.16 29.84z"/><g fill="#5f266d"><path d="M20.81 99.655c9.867 0 17.895-8.028 17.895-17.895S30.677 63.866 20.81 63.866 2.916 71.893 2.916 81.76s8.027 17.895 17.894 17.895zm0-27.789c5.456 0 9.895 4.438 9.895 9.895s-4.438 9.895-9.895 9.895-9.895-4.439-9.895-9.895 4.439-9.895 9.895-9.895zM24.481 53.831c12.884 0 23.365-10.481 23.365-23.364S37.365 7.102 24.481 7.102c-12.883 0-23.364 10.481-23.364 23.365s10.481 23.364 23.364 23.364zm0-38.729c8.473 0 15.365 6.893 15.365 15.365s-6.893 15.364-15.365 15.364S9.117 38.938 9.117 30.467c0-8.473 6.892-15.365 15.364-15.365zM222.577 42.141c7.867 0 15.099-5.238 17.268-13.185 2.599-9.519-3.032-19.376-12.551-21.975-9.516-2.595-19.377 3.031-21.975 12.551-3.097 11.344 5.466 22.609 17.258 22.609zm-9.541-20.502c1.443-5.284 6.912-8.372 12.151-6.94 5.264 1.437 8.377 6.887 6.94 12.15-1.438 5.263-6.888 8.377-12.15 6.94-5.264-1.435-8.377-6.887-6.941-12.15zM212.118 121.381c0 9.867 8.027 17.895 17.895 17.895s17.896-8.028 17.896-17.895-8.028-17.895-17.896-17.895-17.895 8.028-17.895 17.895zm27.79 0c0 5.456-4.439 9.895-9.896 9.895s-9.895-4.439-9.895-9.895 4.438-9.895 9.895-9.895 9.896 4.439 9.896 9.895zM219.217 64.017c-3.113 11.403 5.487 22.608 17.258 22.608 13.717 0 22.345-14.866 15.543-26.772-7.801-13.66-28.574-11.332-32.801 4.164zm26.809 7.317c-1.438 5.263-6.883 8.375-12.151 6.94-5.263-1.437-8.377-6.887-6.94-12.151 1.211-4.434 5.225-7.293 9.53-7.293 6.56 0 11.272 6.23 9.561 12.504zM42.949 125.164c0-9.867-8.027-17.895-17.895-17.895S7.16 115.296 7.16 125.164s8.027 17.895 17.895 17.895 17.894-8.028 17.894-17.895zm-27.789 0c0-5.456 4.438-9.895 9.895-9.895s9.895 4.438 9.895 9.895-4.438 9.895-9.895 9.895-9.895-4.439-9.895-9.895zM140.849 136.245c9.827 0 17.821-7.994 17.821-17.821a4 4 0 0 0-8 0c0 5.415-4.406 9.821-9.821 9.821-5.388 0-9.773-4.363-9.816-9.741a8.498 8.498 0 0 0 2.463-2.081l5.765-7.192a8.425 8.425 0 0 0 1.029-8.987 8.426 8.426 0 0 0-7.656-4.817h-11.53a8.427 8.427 0 0 0-7.656 4.817 8.427 8.427 0 0 0 1.029 8.987l5.765 7.193a8.494 8.494 0 0 0 2.463 2.08c-.044 5.378-4.429 9.741-9.817 9.741-5.415 0-9.82-4.406-9.82-9.821a4 4 0 0 0-8 0c0 9.827 7.994 17.821 17.82 17.821 5.668 0 10.716-2.669 13.982-6.806 3.264 4.137 8.311 6.806 13.979 6.806zm-20.131-32.017a.489.489 0 0 1 .385-.801h11.53a.49.49 0 0 1 .385.801l-5.766 7.192-.001.001a.495.495 0 0 1-.769 0zM105.871 84.101c4.191 3.243 9.063-3.098 4.9-6.324-11.401-8.833-22.14-3.671-26.226.291-3.743 3.632 1.697 9.362 5.545 5.767.716-.67 7.242-6.352 15.781.266zM148.175 83.834c.717-.669 7.24-6.352 15.78.267 4.191 3.243 9.063-3.098 4.9-6.324-11.401-8.833-22.14-3.671-26.226.291-3.742 3.632 1.698 9.362 5.546 5.766z"/><path d="M173.582 151.998h-9.865c10.524-7.395 18.288-17.446 22.785-28.76.531.087 18.136 3.013 18.674 3.013a4 4 0 0 0 .643-7.948l-16.801-2.759c1.484-5.733 2.14-11.778 2.044-16.5l14.959-3.256a4 4 0 0 0 3.058-4.759 4.006 4.006 0 0 0-4.759-3.058l-13.818 3.008c-.022-.166-.042-.335-.065-.5 8.006-30.063 6.64-20.583 15.04-52.238 1.665-6.301-4.082-12.051-10.396-10.387a3943.48 3943.48 0 0 1-12.298 3.255c.108-19.063-20.671-31.108-37.176-21.441-9.784-11.078-27.133-11.075-36.914 0a24.705 24.705 0 0 0-12.475-3.391c-13.669 0-24.853 11.183-24.697 24.978-3.514-.921-7.758-2.044-12.88-3.402-6.318-1.67-12.054 4.118-10.377 10.393 8.396 31.64 7.028 22.237 15.028 52.313-.02.14-.036.281-.055.421l-13.821-3.01c-2.151-.464-4.289.899-4.759 3.058s.898 4.289 3.058 4.759l14.949 3.254a64.018 64.018 0 0 0 2.049 16.504l-16.795 2.758a4.001 4.001 0 0 0 1.296 7.895l18.02-2.96c4.488 11.249 12.174 21.302 22.789 28.76h-13.98c-2.453-7.656-9.633-13.216-18.093-13.216h-6c-8.46 0-15.64 5.56-18.093 13.216H27.92c-4.653 0-8.439 3.786-8.439 8.44v8.16c0 4.648 3.786 8.43 8.439 8.43h8.851v11.84c0 24.191 15.867 45.177 38.869 51.846l-5.595 5.595a4.882 4.882 0 0 0 6.903 6.903l10.458-10.458c2.651.173 76.636.187 79.493 0l10.457 10.457a4.882 4.882 0 0 0 6.903-6.903l-5.599-5.599a53.98 53.98 0 0 0 5.578-1.973c33.312 14.398 70.649-10.189 70.649-46.495-.004-41.831-48.139-65.582-81.305-40.243zm62.129 11.507-16.064 14.311a15.681 15.681 0 0 0-3.539-13.253l1.862-2.723a4 4 0 0 0-6.604-4.516l-1.863 2.724a15.543 15.543 0 0 0-10.5 0l-1.863-2.725a4 4 0 0 0-6.604 4.516l1.859 2.719a15.654 15.654 0 0 0-2.258 17.069 25.951 25.951 0 0 0-5.835 5.262l-7.224-3.711a4 4 0 0 0-3.657 7.116l6.84 3.514a25.47 25.47 0 0 0-1.449 5.341h-6.344a4 4 0 0 0 0 8h6.344a25.501 25.501 0 0 0 1.569 5.644l-8.288 7.384c-23.878-27.45-4.349-70.565 32.159-70.565 12.445.001 23.658 5.362 31.459 13.893zm-45.147 50.934 26.469-23.579a17.259 17.259 0 0 1 2.862 3.91c10.237 19.035-15.956 35.859-29.331 19.669zm19.466-28.056-23.105 20.583c-2.974-13.513 10.039-25.102 23.105-20.583zm-9.947-18.016c6.592-4.26 14.597 2.978 11.006 9.956a25.672 25.672 0 0 0-13.67.003c-1.506-2.922-1.29-6.94 2.664-9.959zm-123.134-5.341v-3.028h29.289l.011.001.013-.001h41.215l.013.001.011-.001h17.75a50.838 50.838 0 0 0-5.968 9.03H75.578a13.9 13.9 0 0 0 1.371-6.002zM197.743 36.192c-4.233 15.953-5.977 21.4-7.663 26.668a354.922 354.922 0 0 0-3.75 12.341 64.632 64.632 0 0 0-15.851-22.87 24.833 24.833 0 0 0 10.669-12.528c16.242-4.236 16.896-4.776 16.595-3.611zm-90.758-17.969a4 4 0 0 0 5.98-.944c6.564-10.567 21.816-10.547 28.367 0 1.281 2.062 4.109 2.527 5.98.944 10.807-9.139 27.472-1.433 27.472 12.755 0 12.417-13.128 20.464-24.135 14.949a4.002 4.002 0 0 0-5.627 2.443c-5.234 17.71-30.501 17.753-35.748 0-.706-2.393-3.408-3.555-5.627-2.443-11.011 5.517-24.135-2.537-24.135-14.949.001-14.206 16.684-21.878 27.473-12.755zM55.994 36.184a.49.49 0 0 1 .6-.6 3394.362 3394.362 0 0 0 16.618 4.378 24.837 24.837 0 0 0 10.247 12.162 63.982 63.982 0 0 0-16.068 23.107c-4.288-15.063-4.589-13.391-11.397-39.047zm19.363 85.719 14.315-2.351a4.001 4.001 0 0 0 3.299-4.596 4.005 4.005 0 0 0-4.596-3.299l-15.729 2.583a56.071 56.071 0 0 1-1.963-13.455c18.516 4.03 17.64 3.899 18.344 3.899a4 4 0 0 0 .846-7.909l-18.794-4.09c1.83-15.135 9.482-28.281 20.958-37.364a24.61 24.61 0 0 0 11.136-.636c9.729 19.993 38.212 20.014 47.951 0a24.724 24.724 0 0 0 10.672.717c11.213 8.924 19.075 22.139 20.861 37.283l-18.795 4.091c-5.161 1.124-3.475 8.939 1.701 7.817l17.479-3.804a56.041 56.041 0 0 1-1.946 13.454l-15.735-2.584a4.003 4.003 0 0 0-4.596 3.299 4.002 4.002 0 0 0 3.299 4.596l14.313 2.351c-6.093 14.013-17.591 24.792-31.643 30.094h-39.732a56.132 56.132 0 0 1-31.645-30.096zm-23.408 24.878h6c6.065 0 11 4.935 11 11v5.245a6 6 0 0 1-3.069 5.23v-10.353a4 4 0 0 0-8 0v11.123h-5.862v-11.123a4 4 0 0 0-8 0v10.352a6 6 0 0 1-3.068-5.23v-5.245c-.001-6.064 4.933-10.999 10.999-10.999zm-24.47 21.817v-8.16c0-.72.931-.44 5.47-.44v3.028c0 2.15.501 4.18 1.371 6.002h-6.401a.435.435 0 0 1-.44-.43zm63.29 66.27c-25.287 0-46-20.325-46-46v-11.84h111.194c-6.557 20.766.903 43.535 18.919 56.415-7.712 1.96-10.39 1.425-84.113 1.425zm87.136-9.151 6.689-5.959c10.621 12.553 29.713 11.924 39.611-.346 7.82 4.017 7.719 4.112 8.934 4.146-15.369 14.188-38.729 15.178-55.234 2.159zm59.327-6.495c-.244-2.817-2.107-3.196-8.988-6.731a25.72 25.72 0 0 0 1.449-5.341h6.344a4 4 0 0 0 0-8h-6.344a25.684 25.684 0 0 0-1.449-5.341l6.841-3.514a4 4 0 1 0-3.657-7.116l-7.224 3.711a29.693 29.693 0 0 0-1.193-1.356l17.536-15.622a42.51 42.51 0 0 1-3.315 49.31z"/><path d="M58.76 193.95a4.001 4.001 0 0 0-7.625 2.423c.096.302 2.409 7.491 7.771 15.295a3.997 3.997 0 0 0 3.301 1.735c3.192 0 5.122-3.604 3.293-6.266-4.64-6.754-6.707-13.085-6.74-13.187zM78.177 219.464a33.961 33.961 0 0 1-3.364-2.283 4 4 0 1 0-4.875 6.343c4.119 3.168 5.195 3.382 6.196 3.382 4.047 0 5.54-5.369 2.043-7.442z"/></g></svg>