<svg xmlns="http://www.w3.org/2000/svg" width="32" height="32" class="ng-scope" viewBox="0 -4 463.242 463"><path fill="#87796f" d="M110.867 315.2v101.734c0 18.882 15.309 34.191 34.188 34.191 18.882 0 34.191-15.309 34.191-34.191V315.199zm0 0"/><path fill="#3a312a" d="M179.246 312.2h-68.379a3 3 0 0 0-3 3v101.734c0 20.504 16.684 37.191 37.192 37.191 20.504 0 37.191-16.688 37.191-37.191V315.199a3.007 3.007 0 0 0-3.004-3zm-3 104.73c0 17.199-13.992 31.191-31.191 31.191-17.196 0-31.188-13.992-31.188-31.191v-98.735h62.375v98.735zm0 0"/><path fill="#87796f" d="M321.008 332.71c-18.883 0-34.192 15.306-34.192 34.188v50.032c0 18.882 15.309 34.191 34.192 34.191 18.879 0 34.187-15.309 34.187-34.191v-50.032c0-18.882-15.308-34.187-34.187-34.187zm0 0"/><path fill="#3a312a" d="M321.008 329.71c-20.508 0-37.192 16.68-37.192 37.188v50.032c0 20.507 16.684 37.191 37.192 37.191 20.504 0 37.187-16.684 37.187-37.191v-50.032c0-20.503-16.683-37.187-37.187-37.187zm31.187 87.22c0 17.199-13.992 31.191-31.187 31.191-17.2 0-31.192-13.992-31.192-31.191v-50.032c0-17.199 13.993-31.187 31.192-31.187 17.195 0 31.187 13.988 31.187 31.187zm0 0"/><path fill="#87796f" d="M450.371 200.121c-20.121-8.34-36.121 31.86-62.5 58.238-1.262 1.262-2.5 2.543-3.723 3.801a14.38 14.38 0 0 0-.699-1.02c-9.68-14.16-28.52-23.718-49.52-30.16-8.179-2.5-16.679-4.539-25.097-6.199-18.184-3.558-35.98-5.34-49.223-6.261-13.277-.88-22-.88-22-.88l-91.16 17.243c-21.46 4.058-37.8 21.738-39.918 43.476-4.441 45.621 10.617 80.524 26.02 100.883v37.7c0 18.878 15.3 34.18 34.18 34.18 18.878 0 34.199-15.302 34.199-34.18v-17c13.285.163 28.597.343 44.515.503l28.559.254c11.793.09 23.473.156 34.484.18v16.059c0 18.882 15.32 34.18 34.203 34.18 18.88 0 34.18-15.298 34.18-34.18v-18.04c6.899-5.578 18.961-46.62 17-90.84 7.598-5.519 15.617-12.34 23.48-20.218 26.38-26.38 59.84-76.617 33.02-87.719zm0 0"/><path fill="#3a312a" d="M462.797 210.797c-1.246-6.262-5.149-10.91-11.277-13.45-15.45-6.406-27.829 10.45-42.165 29.954-6.93 9.43-14.789 20.12-23.601 28.937-.414.414-.828.828-1.238 1.25-9.32-12.238-26.024-22.113-49.707-29.379-7.746-2.367-16.29-4.476-25.403-6.273-15.031-2.945-31.715-5.066-49.597-6.309-13.223-.879-22.11-.886-22.196-.886-.187 0-.375.015-.558.05l-91.16 17.243c-22.707 4.296-40.122 23.265-42.348 46.136-5.172 53.114 15.969 88.618 26.004 102.168v36.703c0 20.5 16.68 37.18 37.18 37.18 20.511 0 37.203-16.68 37.203-37.18v-13.96c12.558.152 26.761.32 41.484.464 1.562 0 3.016-1.308 3.031-2.968a3.007 3.007 0 0 0-2.972-3.032c-15.918-.16-31.223-.34-44.508-.504-.84.02-1.578.301-2.149.868a3.013 3.013 0 0 0-.89 2.132v17c0 17.192-13.996 31.18-31.2 31.18-17.19 0-31.18-13.988-31.18-31.18v-37.699c0-.656-.21-1.293-.609-1.812-9.332-12.34-30.496-46.668-25.425-98.778 1.972-20.234 17.386-37.02 37.492-40.824l90.879-17.187c1.574.011 9.804.097 21.515.875 17.625 1.222 34.059 3.312 48.848 6.21 8.906 1.754 17.25 3.817 24.8 6.122 23.598 7.238 39.723 16.992 48.016 29.117.207.27.38.539.563.828.5.766 1.375 1.207 2.285 1.297.906.078 1.867-.297 2.504-.957a311.794 311.794 0 0 1 3.574-3.653c9.14-9.14 17.14-20.023 24.2-29.628 13.37-18.192 23.93-32.563 35.03-27.961 4.317 1.785 6.829 4.754 7.688 9.074 3.332 16.742-18.574 50.644-41.683 73.758-7.493 7.507-15.27 14.207-23.118 19.91a2.99 2.99 0 0 0-1.234 2.558c.855 19.297-.96 40.297-5.11 59.133-4.038 18.324-8.66 27.528-10.78 29.242a3.005 3.005 0 0 0-1.114 2.336v18.04c0 17.19-13.988 31.18-31.18 31.18-17.207 0-31.203-13.99-31.203-31.18v-16.06a2.997 2.997 0 0 0-2.992-3c-11.008-.027-22.683-.089-34.473-.179-1.664-.101-3.007 1.32-3.02 2.977a2.996 2.996 0 0 0 2.977 3.023c10.739.082 21.38.14 31.508.172v13.066c0 20.5 16.692 37.18 37.203 37.18 20.5 0 37.18-16.68 37.18-37.18v-16.796c8.203-9.356 18.563-49.704 17.063-90.61 7.66-5.676 15.238-12.254 22.535-19.574 11.457-11.457 23.05-26.164 31.011-39.352 6.95-11.496 14.72-27.734 12.317-39.812zm0 0"/><path fill="#695b51" d="M456.91 211.96c-.86-4.32-3.379-7.28-7.68-9.058-6.44-2.68-12.699 1.04-19.44 8.2 4.198 19.398-21.38 55.68-42.438 76.738-2.004 2.004-7.227 7.57-12.364 12.625a37.161 37.161 0 0 0-11.05 25.21c-1.008 29.637-7.516 55.657-13.133 67.333-2.508 5.215-3.934 10.883-3.934 16.664v7.27c0 12.16-6.34 22.82-15.902 28.878a30.887 30.887 0 0 0 11.777 2.301c17.125-.031 31.125-14.937 31.125-32.062v-17.157a2.99 2.99 0 0 1 1.117-2.34c2.121-1.703 6.742-10.921 10.782-29.242 4.14-18.84 5.96-39.84 5.101-59.12a2.974 2.974 0 0 1 1.238-2.56c7.84-5.699 15.621-12.398 23.121-19.917 21.52-21.524 42.02-52.442 42.02-70.102 0-1.3-.121-2.52-.34-3.66zm0 0"/><path fill="#d7e057" d="M64.82 321.727c-1.949 23.125-26.05 26.777-26.05 26.777 20.695.973 25.851 28.117 25.851 28.117.442-19.355 26.64-28.402 26.64-28.402-19.624-1.172-26.44-26.492-26.44-26.492zm0 0"/><path fill="#3a312a" d="M91.445 345.223c-17.21-1.032-23.664-24.047-23.73-24.282-.38-1.406-1.727-2.324-3.164-2.203a2.994 2.994 0 0 0-2.719 2.735c-1.719 20.43-22.629 23.925-23.512 24.062a2.998 2.998 0 0 0-2.543 3.125 2.998 2.998 0 0 0 2.856 2.84c18.054.852 22.996 25.438 23.047 25.684a2.998 2.998 0 0 0 2.941 2.433c.086 0 .168 0 .254-.008a3.001 3.001 0 0 0 2.75-2.918c.39-17.02 24.383-25.554 24.625-25.636a3.004 3.004 0 0 0 1.988-3.246 3.007 3.007 0 0 0-2.793-2.586zm-27.132 20.691c-2.711-6.258-7.418-13.812-15.176-17.75 5.863-2.809 12.82-7.828 16.406-16.547 3.102 6.14 8.398 13.762 16.668 17.445-6.016 3.278-13.844 8.813-17.898 16.852zm0 0"/><path fill="#d7e057" d="M21.422 355.688C20.043 372.046 3 374.627 3 374.627c14.633.688 18.281 19.888 18.281 19.888.313-13.688 18.844-20.09 18.844-20.09-13.883-.832-18.703-18.738-18.703-18.738zm0 0"/><path fill="#3a312a" d="M40.305 371.43c-11.532-.688-15.946-16.371-15.989-16.528a2.999 2.999 0 0 0-3.164-2.207 3.005 3.005 0 0 0-2.718 2.739C17.277 369.176 3.14 371.566 2.55 371.66a3 3 0 0 0 .308 5.965c12.07.566 15.446 17.29 15.477 17.453a2.998 2.998 0 0 0 2.945 2.438c.082 0 .164 0 .25-.008a2.999 2.999 0 0 0 2.75-2.922c.262-11.418 16.664-17.27 16.828-17.324a3.005 3.005 0 0 0 1.993-3.246 3.007 3.007 0 0 0-2.797-2.586zm-19.168 13.59c-1.848-3.77-4.68-7.891-8.895-10.56 3.711-2.081 7.395-5.26 9.742-9.831 2.114 3.746 5.309 7.906 9.883 10.445-3.699 2.203-7.98 5.485-10.73 9.946zm0 0"/><path fill="#d7e057" d="M21.422 302.371C20.043 318.731 3 321.313 3 321.313c14.633.687 18.281 19.886 18.281 19.886.313-13.691 18.844-20.09 18.844-20.09-13.883-.832-18.703-18.738-18.703-18.738zm0 0"/><path fill="#3a312a" d="M40.305 318.113c-11.532-.687-15.942-16.367-15.989-16.527a2.996 2.996 0 0 0-3.164-2.203 3.001 3.001 0 0 0-2.718 2.734C17.277 315.86 3.14 318.25 2.55 318.344a3.001 3.001 0 0 0 .308 5.965c12.07.57 15.446 17.289 15.477 17.453a2.998 2.998 0 0 0 2.945 2.437c.082 0 .164 0 .25-.008a2.999 2.999 0 0 0 2.75-2.921c.262-11.422 16.664-17.27 16.828-17.325a3.005 3.005 0 0 0 1.993-3.246 3.01 3.01 0 0 0-2.797-2.586zm-19.168 13.594c-1.848-3.773-4.68-7.895-8.895-10.559 3.711-2.082 7.395-5.257 9.738-9.832 2.118 3.746 5.31 7.907 9.883 10.446-3.695 2.199-7.976 5.48-10.726 9.945zm0 0"/><path fill="#87796f" d="M400.238 3.121h-72.625a6.918 6.918 0 0 0-6.918 6.914 6.918 6.918 0 0 0 6.918 6.918h51.192a6.915 6.915 0 1 1 0 13.832h-51.192a6.915 6.915 0 1 0 0 13.832h51.192a6.915 6.915 0 1 1 0 13.832h-51.192a6.918 6.918 0 0 0 0 13.836h51.192a6.918 6.918 0 0 1 6.918 6.914 6.918 6.918 0 0 1-6.918 6.918h-51.192a6.918 6.918 0 0 0-6.918 6.914 6.918 6.918 0 0 0 6.918 6.918h51.192a6.918 6.918 0 0 1 0 13.836h-51.192a6.915 6.915 0 1 0 0 13.832h51.192a6.918 6.918 0 0 1 0 13.836h-51.192a6.918 6.918 0 0 0 0 13.836h51.192a6.918 6.918 0 0 1 0 13.836h-51.192a6.915 6.915 0 1 0 0 13.832h72.625c19.172 0 34.719-15.547 34.719-34.719V37.84c0-19.176-15.547-34.719-34.719-34.719zm0 0"/><path fill="#3a312a" d="M400.238.121h-33.261a3 3 0 0 0 0 6h33.261c17.489 0 31.715 14.227 31.715 31.715v110.41c0 17.488-14.226 31.715-31.715 31.715h-72.625a3.916 3.916 0 0 1 0-7.832h51.192c5.468 0 9.914-4.45 9.914-9.918s-4.45-9.918-9.914-9.918h-51.192a3.919 3.919 0 0 1-3.914-3.914 3.92 3.92 0 0 1 3.914-3.918h51.192c5.468 0 9.914-4.45 9.914-9.918s-4.45-9.918-9.914-9.918h-51.192a3.919 3.919 0 0 1-3.914-3.914 3.92 3.92 0 0 1 3.914-3.918h51.192c5.468 0 9.914-4.45 9.914-9.918s-4.45-9.918-9.914-9.918h-51.192a3.919 3.919 0 0 1-3.914-3.914 3.92 3.92 0 0 1 3.914-3.918h51.192c5.468 0 9.914-4.45 9.914-9.914 0-5.469-4.45-9.918-9.914-9.918h-51.192a3.919 3.919 0 0 1-3.914-3.914 3.92 3.92 0 0 1 3.914-3.918h51.192c5.468 0 9.914-4.45 9.914-9.914 0-5.469-4.45-9.918-9.914-9.918h-51.192a3.916 3.916 0 0 1 0-7.832h51.192c5.468 0 9.914-4.45 9.914-9.914 0-5.469-4.45-9.918-9.914-9.918h-51.192a3.916 3.916 0 0 1 0-7.832h10.867c1.66 0 3-1.34 3-3 0-1.656-1.34-3-3-3h-10.867c-5.468 0-9.914 4.449-9.914 9.918 0 5.465 4.45 9.914 9.914 9.914h51.192a3.916 3.916 0 0 1 0 7.832h-51.192c-5.468 0-9.914 4.45-9.914 9.918 0 5.465 4.45 9.914 9.914 9.914h51.192a3.916 3.916 0 0 1 0 7.832h-51.192c-5.468 0-9.914 4.45-9.914 9.918 0 5.465 4.45 9.914 9.914 9.914h51.192a3.92 3.92 0 0 1 3.914 3.918 3.919 3.919 0 0 1-3.914 3.914h-51.192c-5.468 0-9.914 4.45-9.914 9.918 0 5.465 4.45 9.914 9.914 9.914h51.192c2.16 0 3.914 1.758 3.914 3.918s-1.754 3.918-3.914 3.918h-51.192c-5.468 0-9.914 4.45-9.914 9.918 0 5.465 4.45 9.914 9.914 9.914h51.192a3.92 3.92 0 0 1 3.914 3.918 3.917 3.917 0 0 1-3.914 3.918h-51.192c-5.468 0-9.914 4.45-9.914 9.918 0 5.465 4.45 9.914 9.914 9.914h51.192a3.92 3.92 0 0 1 3.914 3.918 3.917 3.917 0 0 1-3.914 3.918h-51.192c-5.468 0-9.914 4.45-9.914 9.918 0 5.465 4.45 9.914 9.914 9.914h72.625c20.797 0 37.715-16.918 37.715-37.715V37.836c0-20.793-16.918-37.715-37.715-37.715zm0 0"/><path fill="#695b51" d="M400.23 6.121h-30c17.5 0 31.72 14.219 31.72 31.719v110.402c0 17.5-14.22 31.719-31.72 31.719h30c17.5 0 31.72-14.219 31.72-31.719V37.84c0-17.5-14.22-31.719-31.72-31.719zm0 0"/><path fill="#87796f" d="M106.531 44.063C87.387 9.237 36.973.187 30.238 3.89c-5.508 3.027-26.11 51.117-6.965 85.941 19.145 34.824 45.563 38.73 68.551 26.09 22.992-12.637 33.852-37.031 14.707-71.86zm0 0"/><path fill="#3a312a" d="M109.16 42.617C89.273 6.441 37.473-3.503 28.793 1.262 21.922 5.039.398 54.449 20.645 91.277c9.421 17.137 21.046 27.993 34.558 32.258a42.397 42.397 0 0 0 12.852 1.973c8.27 0 16.808-2.336 25.215-6.957 12.855-7.067 21.363-17.254 24.605-29.469 3.64-13.691.707-29.324-8.715-46.465zm2.922 44.926c-2.812 10.59-10.316 19.492-21.703 25.754-11.383 6.258-22.918 7.82-33.367 4.52-11.989-3.79-22.457-13.688-31.11-29.43C7.805 55.465 27.238 9.785 31.684 6.52c.5-.254 1.523-.395 2.98-.395 11.93 0 52.715 9.32 69.238 39.383 8.653 15.742 11.403 29.887 8.18 42.035zm0 0"/><path fill="#f16c7a" d="M86.64 50.988C75.868 31.391 47.489 26.297 43.7 28.378c-3.102 1.704-14.696 28.77-3.919 48.372 10.774 19.602 25.645 21.8 38.582 14.684 12.942-7.114 19.055-20.844 8.278-40.446zm0 0"/><path fill="#3a312a" d="M89.27 49.543C78.223 29.445 48.266 22.445 42.254 25.75c-4.95 2.723-16.39 31.914-5.106 52.445 7.204 13.106 17.07 19.977 27.883 19.973 4.79 0 9.766-1.348 14.778-4.102 7.554-4.156 12.566-10.171 14.484-17.398 2.14-8.047.445-17.172-5.023-27.125zm-.774 25.582c-1.488 5.605-5.492 10.336-11.578 13.684-13.41 7.367-25.668 2.578-34.512-13.504-9.468-17.227-.222-40.856 2.82-44.29 3.93-.777 29.083 3.762 38.786 21.419 4.703 8.554 6.21 16.191 4.484 22.691zm0 0"/><path fill="#87796f" d="M283.223 3.89c-6.735-3.703-57.149 5.348-76.293 40.172-19.145 34.829-8.285 59.223 14.707 71.86 22.992 12.64 49.406 8.734 68.55-26.09s-1.457-82.914-6.964-85.941zm0 0"/><path fill="#3a312a" d="M284.668 1.262c-8.684-4.774-60.48 5.18-80.367 41.355-9.422 17.14-12.356 32.774-8.719 46.465 3.242 12.215 11.754 22.402 24.61 29.469 8.406 4.62 16.94 6.957 25.21 6.957 4.38 0 8.688-.656 12.856-1.973 13.508-4.265 25.137-15.12 34.558-32.258 20.247-36.824-1.277-86.238-8.148-90.015zm2.89 87.125c-8.652 15.742-19.117 25.64-31.105 29.43-10.45 3.3-21.988 1.738-33.371-4.52-11.383-6.262-18.887-15.164-21.7-25.754-3.23-12.148-.476-26.293 8.177-42.035 18.543-33.727 67.62-41.348 72.144-39.031 4.52 3.308 23.957 48.988 5.856 81.91zm0 0"/><path fill="#f16c7a" d="M269.762 28.379c-3.793-2.082-32.168 3.012-42.942 22.61-10.777 19.6-4.664 33.331 8.278 40.445 12.941 7.117 27.808 4.918 38.586-14.684 10.773-19.602-.82-46.668-3.922-48.371zm0 0"/><path fill="#3a312a" d="M271.207 25.75c-6.016-3.305-35.969 3.695-47.016 23.797-10.39 18.906-6.855 35.547 9.461 44.52 4.934 2.706 9.95 4.078 14.82 4.078 2.594 0 5.153-.387 7.633-1.172 7.938-2.504 14.735-8.825 20.207-18.778 11.286-20.53-.16-49.722-5.105-52.445zm-.156 49.555c-4.7 8.554-10.336 13.918-16.754 15.945-5.531 1.746-11.672.902-17.754-2.441-13.414-7.375-15.934-20.293-7.094-36.375 9.79-17.805 35.278-22.286 38.75-21.457 3 3.277 12.363 27.027 2.852 44.328zm0 0"/><path fill="#fce8cb" d="M275.41 179.402c-.219-.242-.441-.48-.66-.742.238-3.418.36-6.84.36-10.34 0-14.12-2.06-27.718-5.919-40.46-11.882-39.54-40.742-70.72-77.203-83.278a109.927 109.927 0 0 0-35.976-6.039c-12.102 0-23.782 1.957-34.782 5.637-37 12.28-66.378 43.703-78.398 83.703-3.844 12.738-5.922 26.316-5.922 40.437 0 3.801.16 7.54.461 11.243.02.18.02.359.04.539-10 11.34-15.68 24.257-15.68 38 0 4.32.558 8.418 1.64 12.3 10.117 36.52 65.98 54.418 133.36 54.418 67.378 0 123.238-17.898 133.359-54.418 1.082-3.882 1.64-7.98 1.64-12.3 0-14.04-5.921-27.2-16.32-38.7zm0 0"/><path fill="#3a312a" d="M277.828 177.602c.192-3.079.285-6.125.285-9.282 0-14.175-2.039-28.082-6.047-41.324-12.171-40.516-41.742-72.387-79.093-85.254a113.045 113.045 0 0 0-36.957-6.203c-12.22 0-24.239 1.95-35.727 5.793-37.965 12.598-67.992 44.633-80.328 85.68-4.012 13.316-6.047 27.215-6.047 41.308 0 3.489.133 7.051.41 10.758-10.203 11.953-15.594 25.418-15.594 39.02 0 4.523.59 8.933 1.75 13.101 9.825 35.453 60.758 56.621 136.25 56.621 75.493 0 126.426-21.168 136.25-56.617 1.165-4.172 1.75-8.578 1.75-13.105 0-14.176-5.84-28.168-16.902-40.496zm9.371 52c-8.926 32.21-58.918 52.218-130.469 52.218S35.187 261.813 26.262 229.598c-1.02-3.649-1.532-7.516-1.532-11.496 0-12.665 5.024-24.782 14.93-36.016.559-.637.82-1.586.723-2.43a6.984 6.984 0 0 0-.024-.34c-.297-3.683-.449-7.386-.449-10.996 0-13.507 1.95-26.824 5.793-39.578 11.774-39.183 40.36-69.734 76.477-81.719a106.5 106.5 0 0 1 33.828-5.484c11.926 0 23.703 1.977 35.004 5.875 35.531 12.242 63.683 42.637 75.304 81.316 3.84 12.68 5.79 26 5.79 39.59 0 3.442-.118 6.758-.352 10.13a2.99 2.99 0 0 0 .703 2.148c.246.293.492.562.723.812 10.316 11.406 15.543 23.75 15.543 36.688.007 3.984-.508 7.851-1.524 11.504zm0 0"/><path fill="#87796f" d="M121.23 44.18c-37 12.28-66.378 43.703-78.398 83.703-3.844 12.738-5.922 26.316-5.922 40.437 0 3.801.16 7.54.461 11.243.02.18.02.359.04.539-10 11.34-15.68 24.257-15.68 38 0 4.32.558 8.418 1.64 12.3 8.617 3.72 17.82 5.72 27.36 5.72 49.3 0 89.238-53.282 89.238-119 0-27.481-6.98-52.802-18.739-72.942zm0 0"/><path fill="#3a312a" d="M123.82 42.668a2.997 2.997 0 0 0-3.535-1.336c-37.96 12.602-67.992 44.633-80.324 85.684-4.012 13.312-6.05 27.21-6.05 41.304 0 3.489.136 7.055.413 10.762-10.207 11.95-15.594 25.418-15.594 39.02 0 4.523.59 8.93 1.75 13.105.243.871.868 1.59 1.704 1.95 9.171 3.956 18.777 5.96 28.546 5.96 50.864 0 92.239-54.726 92.239-122 0-27.25-6.621-52.996-19.149-74.449zM50.73 233.121c-8.472 0-16.82-1.652-24.828-4.91a43.297 43.297 0 0 1-1.172-10.11c0-12.663 5.024-24.78 14.93-36.015.559-.637.82-1.586.723-2.43a6.984 6.984 0 0 0-.024-.34c-.297-3.683-.449-7.386-.449-10.996 0-13.507 1.95-26.824 5.793-39.578 11.52-38.344 39.14-68.414 74.152-80.918 11.204 20.106 17.114 44.004 17.114 69.297 0 63.961-38.684 116-86.239 116zm0 0"/><path fill="#87796f" d="M275.41 179.402c-.219-.242-.441-.48-.66-.742.238-3.418.36-6.84.36-10.34 0-14.12-2.06-27.718-5.919-40.46-11.882-39.54-40.742-70.72-77.203-83.278-11.597 20.078-18.5 45.238-18.5 72.54 0 65.718 39.942 119 89.242 119 9.54 0 18.739-2 27.36-5.72 1.082-3.882 1.64-7.98 1.64-12.3 0-14.04-5.921-27.2-16.32-38.7zm0 0"/><path fill="#3a312a" d="M277.828 177.602c.192-3.079.285-6.125.285-9.282 0-14.175-2.039-28.082-6.047-41.324-12.171-40.516-41.742-72.387-79.093-85.254a3.004 3.004 0 0 0-3.578 1.336c-12.368 21.406-18.903 47.008-18.903 74.043 0 67.274 41.38 122 92.238 122 9.774 0 19.38-2.008 28.551-5.965a2.992 2.992 0 0 0 1.7-1.949c1.164-4.172 1.75-8.578 1.75-13.105 0-14.18-5.84-28.172-16.903-40.5zm9.73 50.609c-8.007 3.258-16.355 4.91-24.828 4.91-47.55 0-86.242-52.039-86.242-116 0-25.066 5.828-48.816 16.875-68.863 34.422 12.75 61.594 42.652 72.957 80.472 3.84 12.684 5.79 26.004 5.79 39.59 0 3.446-.118 6.758-.352 10.13a2.99 2.99 0 0 0 .703 2.148c.246.293.492.562.723.816 10.316 11.406 15.543 23.75 15.543 36.688.003 3.48-.391 6.875-1.168 10.109zM156.781 170.766c-10.57-.043-19.164 5.058-19.191 11.402-.031 6.344 8.496 16.629 19.066 16.676 10.574.047 19.192-10.164 19.219-16.508.027-6.34-8.52-11.52-19.094-11.57zm0 0"/><path fill="#f16c7a" d="M156.73 193.145c0 13.66-10.347 24.875-23.632 26.257.25 16.453 10.738 29.68 23.632 29.68s23.383-13.223 23.633-29.68c-13.281-1.382-23.633-12.597-23.633-26.257zm0 0"/><g fill="#3a312a"><path d="M180.676 216.422c-11.942-1.246-20.946-11.25-20.946-23.277a3 3 0 0 0-6 0c0 12.027-9.003 22.03-20.945 23.277a2.995 2.995 0 0 0-2.687 3.027c.277 18.297 11.972 32.633 26.629 32.633 14.66 0 26.359-14.332 26.636-32.633a2.998 2.998 0 0 0-2.687-3.027zm-23.946 29.66c-10.492 0-19.3-10.605-20.5-24.125a29.27 29.27 0 0 0 20.5-15.816 29.288 29.288 0 0 0 20.5 15.816c-1.195 13.52-10.007 24.125-20.5 24.125zm0 0"/><path d="M156.73 190.145c-1.66 0-3 1.343-3 3a23.342 23.342 0 0 1-20.988 23.28c-.754.09-1.57.134-2.426.134-12.91 0-23.414-10.504-23.414-23.414a3 3 0 0 0-6 0c0 16.218 13.196 29.414 29.414 29.414 1.09 0 2.145-.059 3.09-.172 15.008-1.563 26.324-14.133 26.324-29.242a3 3 0 0 0-3-3zm0 0"/><path d="M209.559 190.145a3 3 0 0 0-3 3c0 12.91-10.504 23.414-23.414 23.414-.856 0-1.672-.043-2.47-.137-11.94-1.246-20.945-11.25-20.945-23.277a3 3 0 0 0-6 0c0 15.109 11.317 27.68 26.286 29.238.988.117 2.039.176 3.132.176 16.22 0 29.415-13.196 29.415-29.414a3.007 3.007 0 0 0-3.004-3zm0 0"/></g><path fill="#f5978a" d="M79.043 164.168c-13.73 0-24.86 6.957-24.86 15.539s11.13 15.54 24.86 15.54 24.86-6.958 24.86-15.54-11.13-15.539-24.86-15.539zM234.422 164.168c-13.73 0-24.863 6.957-24.863 15.539s11.132 15.54 24.863 15.54c13.726 0 24.86-6.958 24.86-15.54s-11.134-15.539-24.86-15.539zm0 0"/><path fill="#3a312a" d="M116.332 137.984c-6.008 0-10.875 4.871-10.875 10.875 0 6.008 4.867 10.88 10.875 10.88s10.875-4.872 10.875-10.88c0-6.004-4.867-10.875-10.875-10.875zM197.621 137.984c-6-.273-11.086 4.371-11.36 10.371-.269 6 4.372 11.086 10.372 11.36 6.004.273 11.09-4.371 11.36-10.371.273-6-4.372-11.086-10.372-11.36zm0 0"/></svg>