<svg xmlns="http://www.w3.org/2000/svg" width="32" height="32" class="ng-scope" viewBox="0 0 256 256"><path fill="#44c7b6" d="M194.99 38.121H61.011V20.119c0-8.284 6.716-15 15-15H179.99c8.284 0 15 6.716 15 15z"/><path fill="#4bdbc3" d="M91.01 5.119c-8.28 0-15 6.72-15 15v18h-15v-18c0-8.28 6.72-15 15-15z"/><path fill="#3bb2a0" d="M194.99 20.119v18h-15v-18c0-8.28-6.72-15-15-15h15c8.28 0 15 6.72 15 15z"/><path fill="#ff4a73" d="M177.02 194.039v21.78c0 3.83-2.18 7.34-5.64 9a83.34 83.34 0 0 1-9.36 3.81c-21.83 7.47-47.53 6.94-68.05-.01-3.26-1.11-6.4-2.38-9.36-3.8-3.46-1.66-5.64-5.17-5.64-9v-21.78z"/><path fill="#f973a3" d="M93.97 194.039v34.58c-3.26-1.11-6.4-2.38-9.36-3.8-3.46-1.66-5.64-5.17-5.64-9v-21.78z"/><path fill="#ea2a6a" d="M177.02 194.039v21.78c0 3.83-2.18 7.34-5.64 9a83.34 83.34 0 0 1-9.36 3.81v-34.59z"/><path fill="#ffbb98" d="M50.939 72.769c-3.71-.98-7.1 2.41-6.12 6.12 9.417 35.478 7.736 24.333 16.956 59.055l40.641-51.763C76.55 79.32 86.027 82.083 50.939 72.769zM205.061 72.769c-35.088 9.314-25.662 6.527-51.528 13.388l40.684 51.707c9.221-34.722 7.546-23.497 16.963-58.975.981-3.71-2.409-7.1-6.119-6.12z"/><path fill="#ffbb98" d="M195 148.119c0 4.24-.39 8.39-1.15 12.41-5.821 31.111-33.132 54.59-65.85 54.59-36.994 0-67-29.988-67-67 0-35.92 28.745-67 67.46-67 37.646.554 65.797 30.394 66.52 65.58.02.47.02.95.02 1.42z"/><circle cx="128" cy="236.263" r="14.618" fill="#f9d335"/><path fill="#c98585" d="M131.902 164.251c-2.002 2.497-5.802 2.497-7.803 0l-4.514-5.632-1.902-2.373c-2.623-3.273-.293-8.127 3.902-8.127h12.831c4.195 0 6.525 4.854 3.902 8.127l-1.902 2.373z"/><path fill="#f9e27d" d="M135.5 248.81a14.58 14.58 0 0 1-7.5 2.07c-8.07 0-14.62-6.54-14.62-14.62 0-8.07 6.55-14.62 14.62-14.62 2.74 0 5.31.76 7.5 2.07a14.618 14.618 0 0 0-7.12 12.55c0 5.34 2.86 10 7.12 12.55z"/><path fill="#ffcaa6" d="M135.54 214.7c-2.47.28-4.99.42-7.54.42-36.99 0-67-29.99-67-67 0-35.92 28.75-67 67.46-67 2.39.04 4.74.19 7.05.45C100.88 85.48 76 114.71 76 148.12c0 34.49 26.06 62.88 59.54 66.58z"/><path fill="#ffaa80" d="M195 148.12c0 4.24-.39 8.39-1.15 12.41-5.82 31.11-33.13 54.59-65.85 54.59-2.52 0-5-.14-7.44-.42 29.3-3.3 52.92-25.49 58.29-54.17.76-4.02 1.15-8.17 1.15-12.41 0-.47 0-.95-.02-1.42a66.886 66.886 0 0 0-59.47-65.13c2.6-.3 5.25-.45 7.95-.45 37.65.55 65.8 30.39 66.52 65.58.02.47.02.95.02 1.42z"/><path fill="#c98585" d="M195 148.119c0 4.24-.39 8.39-1.15 12.41-1 .06-2.01.08-3.02.08-35.45 0-64.2-28.74-64.2-64.21 0-5.26.63-10.38 1.83-15.28 37.646.554 65.797 30.394 66.52 65.58.02.47.02.95.02 1.42z"/><path fill="#965959" d="M128.46 81.12c-.14.58-.27 1.16-.4 1.74 34.888 8.004 56.977 41.844 50.97 76.67 3.82.71 7.77 1.08 11.8 1.08 1.01 0 2.02-.02 3.02-.08 7.606-40.234-22.503-78.784-65.39-79.41z"/><g fill="#5f266d"><path d="M65 65.619V42.121h14.99v23.498c0 5.285 8 5.292 8 0V42.121h14v23.498c0 5.285 8 5.292 8 0V42.121h14v23.498c0 5.285 8 5.292 8 0V42.121h14v23.498c0 5.285 8 5.292 8 0V42.121h14v23.498c0 5.285 8 5.292 8 0V42.121H191v23.498c0 5.285 8 5.292 8 0 0-11.12-.01-34.376-.01-45.5 0-10.477-8.523-19-19-19H76.01c-10.477 0-19 8.523-19 19 0 4.871-.01 19.943-.01 45.5 0 5.285 8 5.292 8 0zm.01-45.5c0-6.065 4.935-11 11-11h103.98c6.065 0 11 4.935 11 11v14.002H65.011V20.119z"/><path d="M155.99 18.119h-20c-5.285 0-5.292 8 0 8h20c5.285 0 5.292-8 0-8zM174.99 18.119h-4c-5.285 0-5.292 8 0 8h4c5.285 0 5.292-8 0-8zM154.941 169.262c0 14.594-22.127 15.612-22.778-.166 2.188-1.143 2.382-1.746 9.276-10.348 4.723-5.892.523-14.628-7.022-14.628h-12.832c-7.551 0-11.741 8.741-7.022 14.628 6.925 8.641 7.102 9.212 9.276 10.348-.653 15.823-22.778 14.718-22.778.166 0-5.285-8-5.292-8 0 0 18.594 23.815 26.51 34.94 11.506 11.124 15.003 34.94 7.087 34.94-11.506 0-5.285-8-5.292-8 0zm-26.161-7.513c0 .001 0 .001 0 0a.997.997 0 0 1-1.561 0l-6.416-8.004a.995.995 0 0 1 .78-1.625h12.832c.847 0 1.31.965.78 1.625zM104.91 130.708c4.186 3.241 9.065-3.097 4.899-6.324-12.444-9.641-24.146-4.025-28.594.291-3.792 3.679 1.77 9.428 5.57 5.742.323-.312 7.997-7.557 18.125.291zM174.45 124.383c-12.444-9.641-24.146-4.025-28.594.291-3.793 3.679 1.771 9.428 5.57 5.742.322-.312 7.997-7.556 18.125.291 4.138 3.205 9.14-3.039 4.899-6.324z"/><path d="m215.79 169.572-19.184-3.151a71.31 71.31 0 0 0 2.382-19.092l17.005-3.701c5.158-1.124 3.478-8.93-1.701-7.817l-15.845 3.449c-.496-3.984 8.564-29.063 16.603-59.349 1.762-6.672-4.325-12.774-11.014-11.008-34.529 9.165-25.9 6.599-50.275 13.056-16.697-6.509-35.149-6.415-51.58.021-24.325-6.445-15.714-3.919-50.219-13.079-6.671-1.761-12.775 4.323-11.008 11.014 7.955 29.965 17.086 55.58 16.614 59.347L41.71 135.81c-5.175-1.115-6.864 6.693-1.701 7.817l16.999 3.7c-.085 6.25.701 12.758 2.385 19.093l-19.182 3.151c-4.827.794-4.231 7.948.644 7.948.539 0 20.556-3.322 21.088-3.41 3.057 7.733 7.473 14.972 13.028 21.222v20.478c0 5.356 3.109 10.309 7.917 12.615 7.82 3.76 16.918 6.532 26.508 8.101.143 10.144 8.427 18.355 18.605 18.355 10.162 0 18.436-8.187 18.603-18.311 9.565-1.555 18.468-4.285 26.507-8.144 4.805-2.305 7.91-7.257 7.91-12.614l.009-20.476a70.584 70.584 0 0 0 13.041-21.224c.531.087 20.537 3.408 21.076 3.408 4.87.001 5.472-7.153.643-7.947zM61.728 122.56c-5.109-18.093-5.285-15.472-13.041-44.693a1.005 1.005 0 0 1 1.227-1.232C79.32 84.44 77.379 83.753 91.21 87.364c-13.53 8.155-23.86 20.507-29.482 35.196zm49.285 106.12c-8.961-1.436-17.432-3.989-24.662-7.466-2.053-.985-3.38-3.106-3.38-5.403v-12.818c11.02 9.055 24.403 14.548 38.571 15.83l-.016.006a18.724 18.724 0 0 0-10.513 9.851zM128 246.881c-5.855 0-10.618-4.763-10.618-10.618 0-5.88 4.83-10.619 10.618-10.619 5.801 0 10.618 4.751 10.618 10.619 0 5.855-4.763 10.618-10.618 10.618zm45.02-31.071c0 2.3-1.323 4.421-3.371 5.404-7.436 3.569-15.715 6.083-24.642 7.506a18.763 18.763 0 0 0-10.539-9.899c14.167-1.284 27.546-6.776 38.557-15.825zm15.654-50.692-17.908-2.941c-5.212-.859-6.522 7.035-1.297 7.895l16.509 2.712c-21.142 49.801-93.702 52.061-115.947-.001l16.501-2.71c5.223-.859 3.914-8.759-1.297-7.895l-17.908 2.941a63.128 63.128 0 0 1-2.309-16.047l20.016 4.357c5.24 1.134 6.81-6.705 1.701-7.817l-21.316-4.64c2.674-23.564 18.433-42.975 38.994-51.285.029-.012.059-.021.088-.033v14.633c0 5.285 8 5.292 8 0v-17.24a62.586 62.586 0 0 1 11.5-1.788v30.861c0 5.285 8 5.292 8 0V85.254c3.9.244 7.745.845 11.5 1.798v17.234c0 5.285 8 5.292 8 0V89.674c.614.248 1.239.485 1.835.75.056.025.112.048.169.071 19.566 8.676 34.498 27.554 37.085 50.474l-21.323 4.641c-5.111 1.113-3.535 8.95 1.701 7.817l20.014-4.356a63.077 63.077 0 0 1-2.308 16.047zm-23.989-77.76c13.903-3.622 11.949-2.905 41.397-10.721a1.005 1.005 0 0 1 1.232 1.227c-7.772 29.279-7.933 26.524-13.07 44.7-5.666-14.597-16.159-27.068-29.559-35.206z"/></g></svg>