<svg xmlns="http://www.w3.org/2000/svg" width="30" height="30" viewBox="-96 0 464 464"><path fill="#adabac" d="M272 428c0-19.883-60.89-36-136-36S0 408.117 0 428s60.89 36 136 36 136-16.117 136-36zm0 0"/><path fill="#494342" d="M120 160h32v256c0 8.836-7.164 16-16 16s-16-7.164-16-16zm0 0"/><path fill="#ad2943" d="M232 96c0 53.02-42.98 96-96 96s-96-42.98-96-96S82.98 0 136 0s96 42.98 96 96zm0 0"/><path fill="#ee3446" d="M200 96c0 35.348-28.652 64-64 64s-64-28.652-64-64 28.652-64 64-64 64 28.652 64 64zm0 0"/></svg>