<svg xmlns="http://www.w3.org/2000/svg" width="32" height="32" class="ng-scope" data-name="Layer 1" viewBox="0 0 128 128"><path fill="#56d8d3" d="M100.17 44.033a5.967 5.967 0 0 0-5.714 4.251 4.389 4.389 0 0 0-4.709-1.028 6.04 6.04 0 0 0-7.134-3.048c0-.086.013-.171.013-.258a7.474 7.474 0 1 0-14.781 1.567 5.278 5.278 0 0 0 .485 10.535h16.03a6.025 6.025 0 0 0 3.869-1.4 4.435 4.435 0 0 0 3.064 1.232c1.749 0 6.847.084 8.878.084a5.967 5.967 0 0 0 0-11.934z"/><path fill="#26bebe" d="M100.17 44.033a5.967 5.967 0 0 0-5.714 4.251 4.388 4.388 0 0 0-4.709-1.028 6.078 6.078 0 0 0-2.81-2.722v10.917a6.062 6.062 0 0 0 1.291-.8 4.434 4.434 0 0 0 3.064 1.232c1.749 0 6.847.084 8.878.084a5.967 5.967 0 0 0 0-11.934z"/><path fill="#e5ffff" d="M55.254 50.9a9.337 9.337 0 0 0-8.066-4.633H19.165a3.36 3.36 0 0 0-3.337 3.755l4 33.777a12.5 12.5 0 0 0 12.413 11.03h63.927a12.5 12.5 0 0 0 12.368-10.69l3.624-24.761a3.36 3.36 0 0 0-3.324-3.846H63.319a9.337 9.337 0 0 1-8.065-4.632z"/><path fill="#d8f1ff" d="M33.173 101.375h-5.934l5.751-6.55h5.933zM94.934 101.375h5.933l-5.751-6.55h-5.933z"/><path fill="#fcbe00" d="M111.747 58.861H63.275a13.017 13.017 0 0 1-11.208-6.438 6.936 6.936 0 0 0-5.97-3.429H16.253a3.032 3.032 0 0 1 0-6.065H46.1a13.022 13.022 0 0 1 11.209 6.438 6.933 6.933 0 0 0 5.97 3.429h48.471a3.032 3.032 0 0 1 0 6.065z"/><circle cx="89.745" cy="35.602" r="2.808" fill="#26bebe"/><circle cx="62.577" cy="30.263" r="3.638" fill="#56d8d3"/><path fill="#d8f1ff" d="M108.835 55.528H64v39.3h32.168a12.5 12.5 0 0 0 12.368-10.69l3.624-24.761a3.36 3.36 0 0 0-3.325-3.849z"/><path fill="#ff8f00" d="M111.747 52.8H64v6.065h47.747a3.032 3.032 0 0 0 0-6.065z"/><g fill="#530000"><path d="M89.746 40.16a4.558 4.558 0 1 0-4.559-4.56 4.563 4.563 0 0 0 4.559 4.56zm0-5.616a1.058 1.058 0 1 1-1.059 1.056 1.059 1.059 0 0 1 1.059-1.056zM62.577 35.652a5.388 5.388 0 0 0 0-10.777 1.75 1.75 0 0 0 0 3.5 1.888 1.888 0 1 1-1.889 1.888 1.75 1.75 0 1 0-3.5 0 5.4 5.4 0 0 0 5.389 5.389z"/><path d="M114.779 99.625h-13.12l-2.891-3.293a14.346 14.346 0 0 0 11.5-11.943l3.552-24.27a4.77 4.77 0 0 0-2.073-9.073h-46.92c-.007-.092-.026-.182-.026-.275A3.508 3.508 0 0 1 68 47.259a1.749 1.749 0 0 0 1.553-2.108 5.723 5.723 0 1 1 11.317-1.173l-.009.17a1.75 1.75 0 0 0 2.253 1.735 4.291 4.291 0 0 1 5.071 2.167 1.751 1.751 0 0 0 2.167.845 2.588 2.588 0 0 1 2.858.62 1.75 1.75 0 0 0 2.918-.729 4.216 4.216 0 0 1 7.189-1.588 1.75 1.75 0 0 0 2.614-2.327 7.71 7.71 0 0 0-12.18.85 6.1 6.1 0 0 0-3.2-.458 7.8 7.8 0 0 0-6.34-3.063 9.225 9.225 0 0 0-18.283 1.75v.21a6.982 6.982 0 0 0-4.62 6.495 5.17 5.17 0 0 1-2.493-2.169A14.777 14.777 0 0 0 46.1 41.18H16.253a4.782 4.782 0 0 0 0 9.564H46.1a5.179 5.179 0 0 1 4.458 2.56 14.773 14.773 0 0 0 12.72 7.307h7.058a1.75 1.75 0 0 0 0-3.5h-7.061a11.262 11.262 0 0 1-9.7-5.57 8.692 8.692 0 0 0-7.482-4.3h-29.84a1.282 1.282 0 0 1 0-2.564H46.1a11.265 11.265 0 0 1 9.7 5.569 8.689 8.689 0 0 0 7.482 4.3h48.471a1.282 1.282 0 0 1 0 2.565H82.167a1.75 1.75 0 0 0 0 3.5h28.043l-3.41 23.271a10.809 10.809 0 0 1-10.636 9.193H32.241a10.754 10.754 0 0 1-10.675-9.485L18.2 55.152a1.75 1.75 0 0 0-3.476.411L18.09 84a14.254 14.254 0 0 0 11.295 12.279l-2.938 3.346h-6.791a1.75 1.75 0 0 0 0 3.5h95.123a1.75 1.75 0 0 0 0-3.5zm-19.052 0-2.678-3.05h1.275L97 99.625zm-7.336-3.05 2.678 3.05H37.038l2.678-3.05zm-54.608 0h1.275l-2.678 3.05H31.1zM13.563 99.625h-.342a1.75 1.75 0 0 0 0 3.5h.342a1.75 1.75 0 0 0 0-3.5z"/></g></svg>