<svg xmlns="http://www.w3.org/2000/svg" width="32" height="32" class="ng-scope" viewBox="0 0 256 256"><path fill="#b76c6c" d="M165.125 121.98v91.21H55.205c0-.609-.006-91.733.01-92.34.33-12.71 6.07-24.06 15-31.84 7.69-6.7 17.72-10.75 28.71-10.75h22.48c11 0 21.03 4.05 28.72 10.76 9.19 8.01 15 19.8 15 32.96z"/><path fill="#965959" d="M165.125 121.98v91.21h-15V89.02c9.19 8.01 15 19.8 15 32.96z"/><path fill="#b76c6c" d="M215.98 122.967c-16.554 55.862-15.688 53.152-16.087 53.953-2.921 5.87-11.142 6.487-14.908 1.126-.504-.718 2.359 5.343-44.087-95.146l69.648 28.468c4.848 1.543 7.351 6.888 5.434 11.599z"/><path fill="#ff4a73" d="M146.456 251.333H73.907a5 5 0 0 1-5-5v-5.356a5 5 0 0 1 5-5h72.549a5 5 0 0 1 5 5v5.356a5 5 0 0 1-5 5z"/><path fill="#f973a3" d="M88.912 251.33h-15c-2.77 0-5-2.24-5-5v-5.35c0-2.76 2.23-5 5-5h15c-2.77 0-5 2.24-5 5v5.35c0 2.76 2.229 5 5 5z"/><path fill="#ea2a6a" d="M151.451 240.98v5.35c0 2.76-2.23 5-5 5h-15c2.77 0 5-2.24 5-5v-5.35c0-2.76-2.23-5-5-5h15c2.771 0 5 2.24 5 5z"/><path fill="#c98585" d="M70.215 89.01v124.18h-15v-92.34c.33-12.71 6.07-24.06 15-31.84z"/><path fill="#ffbb98" d="M148.645 235.977h-76.96c-13.982 0-25.316-11.334-25.316-25.316 0-38.031 29.81-64.935 63.796-64.935 35.233 0 63.796 28.562 63.796 63.796 0 16.268-12.117 26.455-25.316 26.455z"/><path fill="#ffaa80" d="M173.973 209.518c0 16.267-12.117 26.46-25.32 26.46h-15c13.98 0 25.32-11.34 25.32-25.32 0-18.818-6.906-34.466-18.69-46.25-9.88-9.88-22.99-16.53-37.61-18.24 2.46-.29 4.96-.44 7.5-.44 17.62 0 33.57 7.14 45.11 18.68 11.55 11.55 18.69 27.49 18.69 45.11z"/><path fill="#ffcaa6" d="M86.71 235.98h-15c-13.98 0-25.31-11.34-25.31-25.32 0-38.027 29.806-64.93 63.79-64.93 2.54 0 5.04.15 7.5.44-30.397 3.558-56.29 28.95-56.29 64.49 0 13.98 11.33 25.32 25.31 25.32z"/><path fill="#b76c6c" d="M113.507 199.943c-16.442 0-24.038-8.966-24.038-20 0-9.736 4.189-13.379 10-13.379h24.038c11.913 0 10 14.673 10 13.379 0 11.046-8.954 20-20 20z"/><path fill="#c98585" d="M118.992 199.17c-1.74.5-3.58.77-5.48.77-16.449 0-24.04-8.962-24.04-20 0-9.726 4.175-13.38 10-13.38h15c-5.747 0-10 3.573-10 13.38 0 9.15 6.14 16.86 14.52 19.23z"/><path fill="#b76c6c" d="M4.989 122.827c16.554 55.862 15.688 53.152 16.087 53.953 2.921 5.87 11.141 6.487 14.908 1.126.504-.718-2.359 5.344 44.087-95.147l-69.648 28.468c-4.847 1.544-7.351 6.889-5.434 11.6z"/><path fill="#ff4a73" d="M179.485 39.002H45.506V21c0-8.284 6.716-15 15-15h103.979c8.284 0 15 6.716 15 15z"/><path fill="#f973a3" d="M75.505 6c-8.28 0-15 6.72-15 15v18h-15V21c0-8.28 6.72-15 15-15z"/><path fill="#ea2a6a" d="M179.485 21v18h-15V21c0-8.28-6.72-15-15-15h15c8.28 0 15 6.72 15 15z"/><path fill="#f9d335" d="M241.261 229h-38.929c-5.523 0-10-4.477-10-10v-93.383c0-1.25.468-2.455 1.313-3.377l24.464-26.714a5 5 0 0 1 7.375 0l24.464 26.714a5.003 5.003 0 0 1 1.313 3.377V219c0 5.523-4.477 10-10 10z"/><path fill="#f2c300" d="M251.259 125.62V219c0 5.52-4.48 10-10 10h-15c5.52 0 10-4.48 10-10v-93.38c0-1.25-.47-2.46-1.31-3.38l-20.65-22.55 3.81-4.16c1.98-2.17 5.39-2.17 7.38 0l24.46 26.71c.84.92 1.31 2.13 1.31 3.38z"/><path fill="#f9e27d" d="M217.329 229h-15c-5.52 0-10-4.48-10-10v-93.38c0-1.25.47-2.46 1.32-3.38l24.46-26.71c1.98-2.17 5.39-2.17 7.38 0l3.81 4.16-20.65 22.55c-.85.92-1.32 2.13-1.32 3.38V219c0 5.52 4.48 10 10 10z"/><g fill="#5f266d"><path d="M77.803 116.835c.823-.773 8.329-7.337 18.146.269a4 4 0 0 0 4.9-6.324c-12.445-9.642-24.146-4.025-28.595.291-3.748 3.638 1.707 9.371 5.549 5.764z"/><circle cx="86.189" cy="127.872" r="7.125"/><path d="M125.429 116.813c.32-.312 7.997-7.555 18.125.291a4 4 0 0 0 4.9-6.324c-12.444-9.642-24.147-4.025-28.596.291a4 4 0 1 0 5.571 5.742z"/><circle cx="133.793" cy="127.872" r="7.125"/><path d="M145.231 196.096a4 4 0 0 0-4 4c0 7.295-5.936 13.231-13.23 13.231-6.211 0-11.421-4.307-12.838-10.087 12.632-.677 22.702-11.166 22.702-23.964v-3.379c0-7.72-6.28-14-14-14h-24.04c-7.72 0-14 6.28-14 14v3.379c0 11.947 8.775 21.88 20.218 23.699-1.319 5.914-6.6 10.352-12.906 10.352-7.296 0-13.231-5.936-13.231-13.231a4 4 0 0 0-8 0c0 20.674 26.791 29.156 38.663 12.088 3.838 5.518 10.216 9.143 17.432 9.143 19.662 0 26.48-25.231 17.23-25.231zm-35.406-.82c-8.822 0-16-7.178-16-16v-3.379c0-3.309 2.691-6 6-6h24.039c3.309 0 6 2.691 6 6v3.379c0 8.822-7.178 16-16 16zM140.509 18.333h-20a4 4 0 0 0 0 8h20a4 4 0 0 0 0-8zM159.509 18.333h-4a4 4 0 0 0 0 8h4a4 4 0 0 0 0-8z"/><path d="m252.936 118.872-24.465-26.714a8.997 8.997 0 0 0-2.487-1.893v-41.93c0-7.72-6.28-14-14-14h-28.475V20.333c0-10.477-8.523-19-19-19H60.53c-10.477 0-19 8.523-19 19V38.13c-.004.069-.021.134-.021.203v30a4 4 0 0 0 8 0V42.335h15v25.998a4 4 0 0 0 8 0V42.335h14v25.998a4 4 0 0 0 8 0V42.335h14v25.998a4 4 0 0 0 8 0V42.335h14v25.998a4 4 0 0 0 8 0V42.335h14v25.998a4 4 0 0 0 8 0V42.335h15v25.998a4 4 0 0 0 8 0V42.335h28.475c3.309 0 6 2.691 6 6v41.779a9 9 0 0 0-2.787 2.043l-10.648 11.627-61.016-24.943c-6.676-3.427-14.198-5.243-21.764-5.243H99.28a47.742 47.742 0 0 0-22.661 5.729L9.4 106.804c-6.892 2.3-10.455 9.902-7.837 16.664l15.55 52.477c3.248 11.001 18.689 12.223 23.549 1.722l10.908-23.601v21.374c-6.382 11.214-8.844 22.486-8.844 34.556 0 13.894 9.719 25.553 22.714 28.557a9.022 9.022 0 0 0-.175 1.759v5.356c0 4.962 4.037 9 9 9h72.548c4.963 0 9-4.038 9-9v-5.356a9.01 9.01 0 0 0-.176-1.766c12.334-2.866 22.681-13.637 22.681-29.688a67.348 67.348 0 0 0-8.838-33.406v-22.625l11.536 24.957c.277.609.6 1.265 1.051 1.892a12.423 12.423 0 0 0 6.303 4.71v33.951c0 7.72 6.28 14 14 14h38.929c7.72 0 14-6.28 14-14v-93.383a8.987 8.987 0 0 0-2.363-6.082zm-77.427-84.537h-18.981l-.019-.002-.019.002h-21.961l-.019-.002-.019.002H112.53l-.019-.002-.019.002H90.528l-.019-.002-.019.002H68.528l-.019-.002-.019.002H49.53V20.333c0-6.065 4.935-11 11-11h103.979c6.065 0 11 4.935 11 11zM83.556 84.859A39.806 39.806 0 0 1 99.28 81.6h22.489c5.761 0 11.277 1.2 16.429 3.551l23.282 50.366v28.696c-12.435-14.177-30.663-23.153-50.958-23.153-20.292 0-38.517 8.973-50.952 23.146v-27.45zM33.4 174.309c-1.73 3.749-7.431 3.365-8.617-.637-.083-.281-15.619-52.749-15.73-53.02a4.717 4.717 0 0 1 2.941-6.28c.24-.077 60.305-24.635 60.539-24.731zm114.413 71.358c0 .551-.448 1-1 1H74.265c-.552 0-1-.449-1-1v-5.356c0-.551.448-1 1-1h72.548c.552 0 1 .449 1 1zm22.505-36.812c0 14.143-10.448 22.455-21.315 22.455h-76.96c-11.754 0-21.316-9.562-21.316-21.315 0-35.894 28.188-60.935 59.796-60.935 32.97 0 59.795 26.824 59.795 59.795zm20.416-89.983a8.98 8.98 0 0 0-2.364 6.079v49.672l-.082-.177-39.135-84.663 49.637 20.292zm56.564 99.461c0 3.309-2.691 6-6 6h-38.929c-3.309 0-6-2.691-6-6V124.95c0-.25.094-.49.264-.675l24.463-26.713a.998.998 0 0 1 1.476 0l24.465 26.714a.995.995 0 0 1 .262.675v93.382z"/><path d="M215.316 146.803h17.383a3.205 3.205 0 0 1 3.201 3.201 4 4 0 0 0 8 0c0-6.176-5.024-11.201-11.201-11.201h-6.864v-8.292a4 4 0 0 0-8 0v8.292h-2.519c-8.572 0-15.547 6.974-15.547 15.547s6.975 15.547 15.547 15.547h13.037c4.161 0 7.547 3.386 7.547 7.547 0 4.162-3.386 7.547-7.547 7.547H210.97a3.205 3.205 0 0 1-3.201-3.202 4 4 0 0 0-8 0c0 6.177 5.024 11.202 11.201 11.202h6.864v8.292a4 4 0 0 0 8 0v-8.292h2.519c8.572 0 15.547-6.975 15.547-15.547s-6.975-15.547-15.547-15.547h-13.037c-4.161 0-7.547-3.386-7.547-7.547 0-4.162 3.386-7.547 7.547-7.547z"/></g></svg>